<mxfile host="Electron" agent="Mozilla/5.0 (Windows NT 10.0; Win64; x64) AppleWebKit/537.36 (KHTML, like Gecko) draw.io/26.0.9 Chrome/128.0.6613.186 Electron/32.2.5 Safari/537.36" version="26.0.9">
  <diagram name="Page-1" id="zZYVvglohmyPJdxK4Nbk">
    <mxGraphModel dx="1105" dy="654" grid="1" gridSize="10" guides="1" tooltips="1" connect="1" arrows="1" fold="1" page="1" pageScale="1" pageWidth="850" pageHeight="1100" math="0" shadow="0">
      <root>
        <mxCell id="0" />
        <mxCell id="1" parent="0" />
        <mxCell id="YyjOJ7lcGBV8w4VevXk6-1" value="&lt;font&gt;crm_cust_info&lt;/font&gt;" style="swimlane;fontStyle=0;childLayout=stackLayout;horizontal=1;startSize=30;horizontalStack=0;resizeParent=1;resizeParentMax=0;resizeLast=0;collapsible=1;marginBottom=0;whiteSpace=wrap;html=1;rounded=1;fontSize=16;fillColor=#dae8fc;strokeColor=#6c8ebf;" parent="1" vertex="1">
          <mxGeometry x="300" y="191" width="160" height="110" as="geometry" />
        </mxCell>
        <mxCell id="YyjOJ7lcGBV8w4VevXk6-2" value="&lt;font&gt;cust_id&lt;/font&gt;" style="text;align=left;verticalAlign=middle;spacingLeft=4;spacingRight=4;overflow=hidden;points=[[0,0.5],[1,0.5]];portConstraint=eastwest;rotatable=0;whiteSpace=wrap;html=1;fontSize=16;" parent="YyjOJ7lcGBV8w4VevXk6-1" vertex="1">
          <mxGeometry y="30" width="160" height="40" as="geometry" />
        </mxCell>
        <mxCell id="YyjOJ7lcGBV8w4VevXk6-18" value="cust_key" style="text;align=left;verticalAlign=middle;spacingLeft=4;spacingRight=4;overflow=hidden;points=[[0,0.5],[1,0.5]];portConstraint=eastwest;rotatable=0;whiteSpace=wrap;html=1;fontSize=16;" parent="YyjOJ7lcGBV8w4VevXk6-1" vertex="1">
          <mxGeometry y="70" width="160" height="40" as="geometry" />
        </mxCell>
        <mxCell id="YyjOJ7lcGBV8w4VevXk6-5" value="&lt;font style=&quot;font-size: 14px;&quot;&gt;&lt;b&gt;Customer Information&lt;/b&gt;&lt;/font&gt;" style="text;html=1;align=center;verticalAlign=middle;whiteSpace=wrap;rounded=0;" parent="1" vertex="1">
          <mxGeometry x="310" y="160" width="140" height="30" as="geometry" />
        </mxCell>
        <mxCell id="YyjOJ7lcGBV8w4VevXk6-6" value="crm_prd_info" style="swimlane;fontStyle=0;childLayout=stackLayout;horizontal=1;startSize=30;horizontalStack=0;resizeParent=1;resizeParentMax=0;resizeLast=0;collapsible=1;marginBottom=0;whiteSpace=wrap;html=1;rounded=1;fontSize=16;fillColor=#dae8fc;strokeColor=#6c8ebf;" parent="1" vertex="1">
          <mxGeometry x="310" y="71" width="160" height="70" as="geometry" />
        </mxCell>
        <mxCell id="YyjOJ7lcGBV8w4VevXk6-7" value="prd_key" style="text;align=left;verticalAlign=middle;spacingLeft=4;spacingRight=4;overflow=hidden;points=[[0,0.5],[1,0.5]];portConstraint=eastwest;rotatable=0;whiteSpace=wrap;html=1;fontSize=16;" parent="YyjOJ7lcGBV8w4VevXk6-6" vertex="1">
          <mxGeometry y="30" width="160" height="40" as="geometry" />
        </mxCell>
        <mxCell id="YyjOJ7lcGBV8w4VevXk6-8" value="&lt;span style=&quot;font-size: 14px;&quot;&gt;&lt;b&gt;Current &amp;amp; previous product info&lt;/b&gt;&lt;/span&gt;" style="text;html=1;align=center;verticalAlign=middle;whiteSpace=wrap;rounded=0;" parent="1" vertex="1">
          <mxGeometry x="320" y="40" width="140" height="30" as="geometry" />
        </mxCell>
        <mxCell id="YyjOJ7lcGBV8w4VevXk6-9" value="crm_sales_detail" style="swimlane;fontStyle=0;childLayout=stackLayout;horizontal=1;startSize=30;horizontalStack=0;resizeParent=1;resizeParentMax=0;resizeLast=0;collapsible=1;marginBottom=0;whiteSpace=wrap;html=1;rounded=1;fontSize=16;fillColor=#dae8fc;strokeColor=#6c8ebf;" parent="1" vertex="1">
          <mxGeometry x="30" y="121" width="160" height="110" as="geometry" />
        </mxCell>
        <mxCell id="YyjOJ7lcGBV8w4VevXk6-10" value="prd_key" style="text;align=left;verticalAlign=middle;spacingLeft=4;spacingRight=4;overflow=hidden;points=[[0,0.5],[1,0.5]];portConstraint=eastwest;rotatable=0;whiteSpace=wrap;html=1;fontSize=16;" parent="YyjOJ7lcGBV8w4VevXk6-9" vertex="1">
          <mxGeometry y="30" width="160" height="40" as="geometry" />
        </mxCell>
        <mxCell id="YyjOJ7lcGBV8w4VevXk6-12" value="cust_id" style="text;align=left;verticalAlign=middle;spacingLeft=4;spacingRight=4;overflow=hidden;points=[[0,0.5],[1,0.5]];portConstraint=eastwest;rotatable=0;whiteSpace=wrap;html=1;fontSize=16;" parent="YyjOJ7lcGBV8w4VevXk6-9" vertex="1">
          <mxGeometry y="70" width="160" height="40" as="geometry" />
        </mxCell>
        <mxCell id="YyjOJ7lcGBV8w4VevXk6-11" value="&lt;span style=&quot;font-size: 14px;&quot;&gt;&lt;b&gt;Transaction Record of sales and cust&lt;/b&gt;&lt;/span&gt;" style="text;html=1;align=center;verticalAlign=middle;whiteSpace=wrap;rounded=0;" parent="1" vertex="1">
          <mxGeometry x="40" y="90" width="140" height="30" as="geometry" />
        </mxCell>
        <mxCell id="YyjOJ7lcGBV8w4VevXk6-13" style="edgeStyle=orthogonalEdgeStyle;rounded=0;orthogonalLoop=1;jettySize=auto;html=1;entryX=-0.015;entryY=0.125;entryDx=0;entryDy=0;entryPerimeter=0;" parent="1" source="YyjOJ7lcGBV8w4VevXk6-9" target="YyjOJ7lcGBV8w4VevXk6-7" edge="1">
          <mxGeometry relative="1" as="geometry" />
        </mxCell>
        <mxCell id="YyjOJ7lcGBV8w4VevXk6-14" style="edgeStyle=orthogonalEdgeStyle;rounded=0;orthogonalLoop=1;jettySize=auto;html=1;entryX=0.02;entryY=0.255;entryDx=0;entryDy=0;entryPerimeter=0;" parent="1" source="YyjOJ7lcGBV8w4VevXk6-10" target="YyjOJ7lcGBV8w4VevXk6-2" edge="1">
          <mxGeometry relative="1" as="geometry">
            <Array as="points">
              <mxPoint x="245" y="190" />
              <mxPoint x="245" y="231" />
            </Array>
          </mxGeometry>
        </mxCell>
        <mxCell id="YyjOJ7lcGBV8w4VevXk6-15" value="erm_custAZ12" style="swimlane;fontStyle=0;childLayout=stackLayout;horizontal=1;startSize=30;horizontalStack=0;resizeParent=1;resizeParentMax=0;resizeLast=0;collapsible=1;marginBottom=0;whiteSpace=wrap;html=1;rounded=1;fontSize=16;fillColor=#fff2cc;strokeColor=#d6b656;" parent="1" vertex="1">
          <mxGeometry x="40" y="431" width="160" height="70" as="geometry" />
        </mxCell>
        <mxCell id="YyjOJ7lcGBV8w4VevXk6-16" value="&lt;font&gt;cid&lt;/font&gt;" style="text;align=left;verticalAlign=middle;spacingLeft=4;spacingRight=4;overflow=hidden;points=[[0,0.5],[1,0.5]];portConstraint=eastwest;rotatable=0;whiteSpace=wrap;html=1;fontSize=16;" parent="YyjOJ7lcGBV8w4VevXk6-15" vertex="1">
          <mxGeometry y="30" width="160" height="40" as="geometry" />
        </mxCell>
        <mxCell id="YyjOJ7lcGBV8w4VevXk6-17" value="&lt;span style=&quot;font-size: 14px;&quot;&gt;&lt;b&gt;Extra cust info (DOB)&lt;/b&gt;&lt;/span&gt;" style="text;html=1;align=center;verticalAlign=middle;whiteSpace=wrap;rounded=0;" parent="1" vertex="1">
          <mxGeometry x="50" y="400" width="140" height="30" as="geometry" />
        </mxCell>
        <mxCell id="YyjOJ7lcGBV8w4VevXk6-19" style="edgeStyle=orthogonalEdgeStyle;rounded=0;orthogonalLoop=1;jettySize=auto;html=1;entryX=1;entryY=0.5;entryDx=0;entryDy=0;" parent="1" source="YyjOJ7lcGBV8w4VevXk6-18" target="YyjOJ7lcGBV8w4VevXk6-16" edge="1">
          <mxGeometry relative="1" as="geometry" />
        </mxCell>
        <mxCell id="YyjOJ7lcGBV8w4VevXk6-20" value="erm_loc" style="swimlane;fontStyle=0;childLayout=stackLayout;horizontal=1;startSize=30;horizontalStack=0;resizeParent=1;resizeParentMax=0;resizeLast=0;collapsible=1;marginBottom=0;whiteSpace=wrap;html=1;rounded=1;fontSize=16;fillColor=#fff2cc;strokeColor=#d6b656;" parent="1" vertex="1">
          <mxGeometry x="40" y="561" width="160" height="70" as="geometry" />
        </mxCell>
        <mxCell id="YyjOJ7lcGBV8w4VevXk6-21" value="cid" style="text;align=left;verticalAlign=middle;spacingLeft=4;spacingRight=4;overflow=hidden;points=[[0,0.5],[1,0.5]];portConstraint=eastwest;rotatable=0;whiteSpace=wrap;html=1;fontSize=16;" parent="YyjOJ7lcGBV8w4VevXk6-20" vertex="1">
          <mxGeometry y="30" width="160" height="40" as="geometry" />
        </mxCell>
        <mxCell id="YyjOJ7lcGBV8w4VevXk6-22" value="&lt;span style=&quot;font-size: 14px;&quot;&gt;&lt;b&gt;Customer Location&lt;/b&gt;&lt;/span&gt;" style="text;html=1;align=center;verticalAlign=middle;whiteSpace=wrap;rounded=0;" parent="1" vertex="1">
          <mxGeometry x="50" y="530" width="140" height="30" as="geometry" />
        </mxCell>
        <mxCell id="YyjOJ7lcGBV8w4VevXk6-23" style="edgeStyle=orthogonalEdgeStyle;rounded=0;orthogonalLoop=1;jettySize=auto;html=1;entryX=0;entryY=0.5;entryDx=0;entryDy=0;" parent="1" source="YyjOJ7lcGBV8w4VevXk6-21" target="YyjOJ7lcGBV8w4VevXk6-18" edge="1">
          <mxGeometry relative="1" as="geometry" />
        </mxCell>
        <mxCell id="YyjOJ7lcGBV8w4VevXk6-24" style="edgeStyle=orthogonalEdgeStyle;rounded=0;orthogonalLoop=1;jettySize=auto;html=1;entryX=1;entryY=0.5;entryDx=0;entryDy=0;" parent="1" source="YyjOJ7lcGBV8w4VevXk6-18" target="YyjOJ7lcGBV8w4VevXk6-21" edge="1">
          <mxGeometry relative="1" as="geometry" />
        </mxCell>
        <mxCell id="YyjOJ7lcGBV8w4VevXk6-25" value="prd_cat" style="swimlane;fontStyle=0;childLayout=stackLayout;horizontal=1;startSize=30;horizontalStack=0;resizeParent=1;resizeParentMax=0;resizeLast=0;collapsible=1;marginBottom=0;whiteSpace=wrap;html=1;rounded=1;fontSize=16;fillColor=#fff2cc;strokeColor=#d6b656;" parent="1" vertex="1">
          <mxGeometry x="340" y="541" width="160" height="70" as="geometry" />
        </mxCell>
        <mxCell id="YyjOJ7lcGBV8w4VevXk6-26" value="id" style="text;align=left;verticalAlign=middle;spacingLeft=4;spacingRight=4;overflow=hidden;points=[[0,0.5],[1,0.5]];portConstraint=eastwest;rotatable=0;whiteSpace=wrap;html=1;fontSize=16;" parent="YyjOJ7lcGBV8w4VevXk6-25" vertex="1">
          <mxGeometry y="30" width="160" height="40" as="geometry" />
        </mxCell>
        <mxCell id="YyjOJ7lcGBV8w4VevXk6-27" value="&lt;span style=&quot;font-size: 14px;&quot;&gt;&lt;b&gt;Product Category&lt;/b&gt;&lt;/span&gt;" style="text;html=1;align=center;verticalAlign=middle;whiteSpace=wrap;rounded=0;" parent="1" vertex="1">
          <mxGeometry x="350" y="510" width="140" height="30" as="geometry" />
        </mxCell>
        <mxCell id="YyjOJ7lcGBV8w4VevXk6-28" style="edgeStyle=orthogonalEdgeStyle;rounded=0;orthogonalLoop=1;jettySize=auto;html=1;entryX=1;entryY=0.5;entryDx=0;entryDy=0;" parent="1" source="YyjOJ7lcGBV8w4VevXk6-26" target="YyjOJ7lcGBV8w4VevXk6-7" edge="1">
          <mxGeometry relative="1" as="geometry">
            <Array as="points">
              <mxPoint x="320" y="591" />
              <mxPoint x="320" y="420" />
              <mxPoint x="490" y="420" />
              <mxPoint x="490" y="121" />
            </Array>
          </mxGeometry>
        </mxCell>
        <mxCell id="YyjOJ7lcGBV8w4VevXk6-29" value="" style="rounded=1;whiteSpace=wrap;html=1;fillColor=none;dashed=1;" parent="1" vertex="1">
          <mxGeometry x="10" y="11" width="510" height="359" as="geometry" />
        </mxCell>
        <mxCell id="YyjOJ7lcGBV8w4VevXk6-31" value="&lt;b&gt;&lt;font style=&quot;font-size: 28px;&quot;&gt;CRM&lt;/font&gt;&lt;/b&gt;" style="ellipse;whiteSpace=wrap;html=1;fillColor=#dae8fc;strokeColor=#6c8ebf;" parent="1" vertex="1">
          <mxGeometry x="540" y="141" width="120" height="80" as="geometry" />
        </mxCell>
        <mxCell id="YyjOJ7lcGBV8w4VevXk6-32" value="&lt;span style=&quot;font-size: 28px;&quot;&gt;&lt;b&gt;ERM&lt;/b&gt;&lt;/span&gt;" style="ellipse;whiteSpace=wrap;html=1;fillColor=#fff2cc;strokeColor=#d6b656;" parent="1" vertex="1">
          <mxGeometry x="540" y="510" width="120" height="80" as="geometry" />
        </mxCell>
      </root>
    </mxGraphModel>
  </diagram>
</mxfile>
